<svg width="190" height="153" xmlns="http://www.w3.org/2000/svg" xmlns:xlink="http://www.w3.org/1999/xlink"><defs><path id="a" d="M0 152.62h189.475V0H0z"/></defs><g fill="none" fill-rule="evenodd"><path d="M18.723 117.582c0 .616-.26 1.265-.78 1.945-.846 1.297-2.113 2.328-3.804 3.089-1.69.762-3.559 1.143-5.606 1.143a7.56 7.56 0 01-2.732-.486 6.318 6.318 0 01-2.17-1.363 6.733 6.733 0 01-1.437-2.043 5.98 5.98 0 01-.536-2.529c0-1.815.82-3.266 2.461-4.353 1.641-1.087 3.81-1.63 6.51-1.63 2.893 0 5.591.486 8.094 1.46v4.767zm1.658 4.475v-13.23c0-3.05-.854-5.45-2.56-7.2-1.706-1.752-4.04-2.626-6.998-2.626-2.73 0-5.737 1.102-9.02 3.307l.781 1.216c1.43-1.004 2.836-1.776 4.217-2.31 1.381-.535 2.69-.804 3.925-.804 2.438 0 4.381.755 5.828 2.263 1.445 1.507 2.17 3.526 2.17 6.056v2.723c-1.14-.453-2.438-.794-3.902-1.021a28.08 28.08 0 00-4.29-.34c-1.56 0-2.983.178-4.267.535-1.284.357-2.39.86-3.315 1.508-.927.649-1.65 1.418-2.17 2.31a5.734 5.734 0 00-.78 2.943c0 1.103.211 2.124.633 3.065a7.542 7.542 0 001.756 2.456 8.426 8.426 0 002.633 1.654c1.007.405 2.097.608 3.267.608 2.145 0 4.152-.413 6.021-1.24 1.869-.827 3.373-2.002 4.51-3.527v2.238c0 .583.203 1.078.61 1.483.407.406.885.608 1.439.608.162 0 .292-.016.39-.048v-1.557c-.585 0-.878-.356-.878-1.07zm28.036 0V99.389h-1.658v16.052c-.39 1.2-.935 2.303-1.634 3.308a11.504 11.504 0 01-2.437 2.578 11.384 11.384 0 01-3.048 1.678 9.677 9.677 0 01-3.364.609c-4.551 0-6.826-3.34-6.826-10.021V99.389h-1.658v14.398c0 3.763.683 6.6 2.048 8.513 1.364 1.914 3.396 2.87 6.094 2.87 2.276 0 4.39-.6 6.339-1.8 1.95-1.2 3.478-2.837 4.584-4.913v4.183c0 .487.187.957.56 1.411.374.455.837.68 1.39.68h.22c.08 0 .17-.015.268-.048v-1.556c-.586 0-.878-.357-.878-1.07M61.63 103.16c1.722-1.379 3.754-2.117 6.094-2.214V99.39c-.195 0-.421.009-.682.025-.26.016-.553.024-.877.024-1.658.194-3.219.86-4.68 1.994-1.464 1.136-2.634 2.595-3.512 4.378V99.39h-1.609v25.294h1.658v-15.906c.682-2.366 1.884-4.239 3.609-5.618m11.921 3.866a11.255 11.255 0 012.266-3.453 10.426 10.426 0 013.267-2.287c1.236-.55 2.568-.827 3.999-.827 1.43 0 2.762.268 3.998.803a10.389 10.389 0 013.292 2.262c.958.973 1.73 2.124 2.316 3.454.584 1.33.926 2.789 1.023 4.377h-21.16c.097-1.556.429-3 .999-4.329m19.966 12.015l-1.51-.389a8.35 8.35 0 01-1.415 2.067 8.78 8.78 0 01-2.049 1.63 10.477 10.477 0 01-5.265 1.411 9.34 9.34 0 01-3.95-.852 11.058 11.058 0 01-3.291-2.31c-.96-.973-1.748-2.132-2.365-3.478a12.162 12.162 0 01-1.072-4.354h22.722c0-.032.007-.146.024-.34.016-.196.024-.324.024-.39 0-1.783-.325-3.47-.975-5.058-.651-1.59-1.528-2.975-2.633-4.16a12.214 12.214 0 00-3.901-2.797c-1.495-.68-3.105-1.02-4.827-1.02-1.723 0-3.315.34-4.778 1.02a12.552 12.552 0 00-3.853 2.773 12.686 12.686 0 00-2.584 4.086c-.617 1.556-.925 3.228-.925 5.011 0 1.816.316 3.526.95 5.131a13.461 13.461 0 002.633 4.232 12.43 12.43 0 003.924 2.87c1.496.697 3.106 1.046 4.829 1.046 1.137 0 2.242-.154 3.315-.462a12.816 12.816 0 002.974-1.265 10.393 10.393 0 002.413-1.946 8.214 8.214 0 001.585-2.456m27.573-2.505c-.569 1.41-1.332 2.635-2.29 3.672a11.067 11.067 0 01-3.365 2.481 9.277 9.277 0 01-3.17.876v-22.962a9.085 9.085 0 013.195.878 11.156 11.156 0 013.34 2.48c.958 1.04 1.721 2.263 2.29 3.673.569 1.41.854 2.895.854 4.45 0 1.557-.285 3.041-.854 4.452zm-10.067 7.059a9.476 9.476 0 01-3.731-.882 10.41 10.41 0 01-3.341-2.456c-.943-1.038-1.69-2.254-2.242-3.648a11.881 11.881 0 01-.83-4.427c0-1.588.284-3.089.854-4.5.568-1.41 1.332-2.642 2.291-3.696a10.972 10.972 0 013.34-2.505 9.122 9.122 0 013.66-.904v23.018zm12.627-11.46c0-1.784-.316-3.47-.95-5.06a13.488 13.488 0 00-2.609-4.183 12.37 12.37 0 00-3.9-2.846 11.087 11.087 0 00-3.926-1v-6.083h-1.242v6.058c-1.543.05-3.001.383-4.365 1.025a12.425 12.425 0 00-3.877 2.846 13.488 13.488 0 00-2.608 4.183 13.513 13.513 0 00-.951 5.06c0 1.75.308 3.42.926 5.008.618 1.59 1.478 2.976 2.585 4.16a12.57 12.57 0 003.876 2.82c1.366.644 2.84.977 4.414 1.027v4.407h1.242v-4.432a11.088 11.088 0 003.926-1.001 12.513 12.513 0 003.9-2.822c1.105-1.183 1.975-2.569 2.609-4.159a13.39 13.39 0 00.95-5.009zm11.923 11.745a8.248 8.248 0 01-1.293.122c-.975 0-1.755-.275-2.341-.827-.584-.55-.877-1.296-.877-2.237V89.174h-.976v31.764c0 1.2.358 2.165 1.074 2.894.714.73 1.64 1.094 2.779 1.094.455 0 1.015-.056 1.682-.17a10.19 10.19 0 001.682-.413l-.342-.778c-.422.13-.885.235-1.388.316m21.964-6.153c0 .649-.244 1.313-.731 1.994-.878 1.362-2.218 2.449-4.022 3.259-1.805.81-3.797 1.216-5.973 1.216a7.757 7.757 0 01-2.828-.51 6.933 6.933 0 01-2.292-1.436 6.783 6.783 0 01-1.536-2.164 6.341 6.341 0 01-.56-2.651c0-.94.226-1.792.682-2.554.455-.761 1.097-1.419 1.926-1.97.83-.551 1.82-.973 2.974-1.265 1.153-.292 2.445-.437 3.876-.437 3.055 0 5.883.503 8.484 1.508v5.01zm.975 5.01v-13.96c0-1.492-.219-2.838-.658-4.038-.438-1.2-1.056-2.22-1.852-3.064-.798-.843-1.773-1.491-2.927-1.946-1.154-.454-2.43-.68-3.827-.68-2.6 0-5.526 1.102-8.776 3.307l.584.777c1.432-1.004 2.845-1.775 4.243-2.31 1.397-.535 2.714-.802 3.95-.802 1.234 0 2.364.21 3.387.633a7.608 7.608 0 012.634 1.774c.732.763 1.293 1.687 1.683 2.773.39 1.087.584 2.279.584 3.575v2.87c-1.202-.454-2.551-.802-4.047-1.045a27.651 27.651 0 00-4.437-.365c-1.528 0-2.934.178-4.218.535-1.284.357-2.389.851-3.315 1.483-.927.633-1.64 1.386-2.146 2.262-.504.875-.755 1.848-.755 2.919 0 1.07.21 2.076.634 3.015.422.942 1 1.76 1.73 2.457a8.124 8.124 0 002.61 1.654 8.534 8.534 0 003.218.608c2.21 0 4.258-.413 6.143-1.24 1.885-.827 3.413-2.003 4.583-3.527v2.335c0 .422.097.802.293 1.143.195.34.454.576.78.705.098.066.324.097.682.097v-.972c-.52 0-.78-.324-.78-.973zm29.157-6.202a12.77 12.77 0 01-2.315 3.867 11.618 11.618 0 01-3.56 2.748c-1.381.698-2.885 1.046-4.51 1.046-.975 0-2.031-.202-3.169-.608a12.808 12.808 0 01-3.169-1.654 10.582 10.582 0 01-2.462-2.432c-.668-.924-1.033-1.905-1.098-2.943v-9.194a16.68 16.68 0 011.756-2.772 13.692 13.692 0 012.316-2.335 10.93 10.93 0 012.877-1.63 9.396 9.396 0 013.388-.607c1.593 0 3.048.34 4.365 1.021a11.26 11.26 0 013.412 2.7 12.163 12.163 0 012.218 3.867c.52 1.46.781 2.967.781 4.524 0 1.492-.276 2.96-.83 4.402m1-9.072a14.094 14.094 0 00-2.29-4.208 11.6 11.6 0 00-3.683-3.04c-1.462-.778-3.12-1.167-4.973-1.167-2.21 0-4.16.592-5.851 1.776-1.69 1.183-3.186 2.683-4.486 4.498V89.174h-.975v35.51h.975v-5.254a10.91 10.91 0 001.828 2.262 13.669 13.669 0 002.39 1.824c.861.519 1.772.924 2.73 1.216a10.05 10.05 0 002.95.437c1.724 0 3.324-.356 4.804-1.07a12.742 12.742 0 003.876-2.87 13.208 13.208 0 002.584-4.159c.617-1.572.926-3.217.926-4.936 0-1.557-.267-3.114-.805-4.67" fill="#FFF"/><mask id="b" fill="#fff"><use xlink:href="#a"/></mask><path fill="#FFF" mask="url(#b)" d="M56.01 152.48h.893v-12.263h-.893zm2.962-11.51h4.343v11.511h.895v-11.51h4.319v-.754h-9.557zm21.633 9.86a4.58 4.58 0 01-3.041 1.114c-.324 0-.653-.055-.986-.165a2.82 2.82 0 01-.907-.498 2.584 2.584 0 01-.665-.828c-.171-.33-.258-.717-.258-1.161 0-.341.059-.67.174-.988a3.35 3.35 0 01.496-.894c.213-.276.477-.528.786-.753a4.89 4.89 0 011.038-.572l.096.095 3.987 3.909a5.638 5.638 0 01-.72.741m2.475-2.53a5.66 5.66 0 00.305-1.678h-.478c-.07 0-.121.022-.157.066a.362.362 0 00-.069.177 6.23 6.23 0 01-.296 1.304c-.15.448-.355.88-.616 1.296l-3.884-3.805c-.51-.496-.886-.961-1.13-1.396a2.73 2.73 0 01-.364-1.36c0-.318.057-.61.17-.876.112-.266.27-.495.472-.689.203-.193.447-.343.73-.45.284-.107.6-.161.948-.161a2.111 2.111 0 011.538.616c.173.173.308.358.403.555.096.195.158.373.187.529.03.08.068.137.117.168a.21.21 0 00.16.03l.47-.094a2.167 2.167 0 00-.247-.932 2.626 2.626 0 00-.618-.785 3.076 3.076 0 00-2.01-.737c-.47 0-.894.073-1.274.217a2.96 2.96 0 00-.976.598 2.638 2.638 0 00-.63.897 2.805 2.805 0 00-.223 1.123c0 .497.102.962.305 1.395.203.433.513.884.93 1.352a5.302 5.302 0 00-1.164.607c-.36.248-.67.53-.93.845a3.85 3.85 0 00-.616 1.04 3.178 3.178 0 00-.227 1.192c0 .52.103.983.31 1.39.204.408.473.752.807 1.032.332.28.71.493 1.134.637.422.144.851.217 1.285.217.458 0 .895-.052 1.313-.156a5.558 5.558 0 001.172-.434 5.78 5.78 0 001.016-.654c.313-.25.597-.527.852-.828l1.781 1.742a.692.692 0 00.23.156.794.794 0 00.256.035h.774l-2.58-2.53a6.594 6.594 0 00.824-1.652m19.91-8.056c-.05.017-.097.064-.145.139l-4.822 8.52a3.888 3.888 0 00-.243.528 3.593 3.593 0 00-.225-.52l-4.961-8.528c-.046-.075-.094-.122-.14-.139a.56.56 0 00-.19-.026h-.617v12.264h.782v-10.453c0-.155-.008-.32-.027-.493l4.97 8.589c.081.15.197.225.348.225h.138c.151 0 .267-.075.348-.225l4.84-8.573a4.644 4.644 0 00-.026.477v10.453h.772v-12.264h-.608a.597.597 0 00-.195.026m8.58 10.323a9.57 9.57 0 01-.617.58c-.209.18-.433.334-.673.464a3.472 3.472 0 01-1.708.412c-.225 0-.443-.032-.651-.096a1.519 1.519 0 01-.552-.298 1.48 1.48 0 01-.382-.52 1.804 1.804 0 01-.143-.75c0-.307.092-.58.278-.82.185-.24.47-.446.856-.62.384-.172.874-.31 1.467-.41a16.334 16.334 0 012.125-.196v2.254zm.117-6.002a2.259 2.259 0 00-.864-.633c-.348-.147-.753-.22-1.217-.22-.632 0-1.195.114-1.694.345a5.034 5.034 0 00-1.425 1.024l.148.25c.03.047.063.085.105.113.04.03.092.044.156.044.086 0 .194-.058.321-.173.127-.116.293-.243.495-.382s.45-.266.743-.381c.293-.116.647-.174 1.064-.174.678 0 1.19.215 1.534.646.345.43.517 1.044.517 1.841v.902c-.979.024-1.818.104-2.516.243s-1.27.324-1.715.555c-.447.231-.773.502-.982.814-.208.312-.312.65-.312 1.014 0 .393.064.73.195 1.01.13.28.304.51.521.689.217.179.465.312.742.398.278.088.565.13.86.13.354 0 .678-.034.974-.104.295-.068.57-.167.825-.294a4.2 4.2 0 00.735-.468c.234-.185.47-.393.708-.624l.121 1.11c.04.161.148.242.322.242h.33v-5.617c0-.479-.059-.913-.174-1.304a2.77 2.77 0 00-.517-.996zm7.25 6.799c-.04 0-.095.03-.165.09a2.289 2.289 0 01-.66.399 1.41 1.41 0 01-.539.092 1.37 1.37 0 01-.468-.078.982.982 0 01-.379-.243 1.143 1.143 0 01-.252-.42c-.06-.17-.09-.374-.09-.611v-5.85h2.726v-.616h-2.727v-3.294h-.39c-.065 0-.114.02-.148.062a.313.313 0 00-.07.138l-.21 3.086-1.475.103v.321c0 .064.02.113.06.147.04.035.092.052.157.052h1.242v5.894c0 .676.164 1.176.491 1.5.327.323.784.484 1.368.484a2.63 2.63 0 001.056-.22c.338-.148.617-.343.838-.585l-.225-.364c-.048-.058-.094-.087-.14-.087m8.14-6.769a2.298 2.298 0 00-.899-.65 3.266 3.266 0 00-1.255-.226c-.638 0-1.213.145-1.724.434-.513.29-.97.676-1.37 1.161v-5.443h-.833v12.61h.834v-6.482a4.43 4.43 0 011.308-1.191 3.07 3.07 0 011.576-.43c.758 0 1.324.23 1.695.69.37.459.555 1.093.555 1.902v5.512h.834v-5.512c0-.503-.06-.954-.182-1.353a2.882 2.882 0 00-.54-1.022m7.859 3.866a3.19 3.19 0 00-.768-.421c-.29-.112-.584-.215-.882-.308a89.099 89.099 0 01-.882-.277 3.964 3.964 0 01-.768-.33 1.805 1.805 0 01-.544-.458 1.076 1.076 0 01-.208-.677c0-.22.05-.429.147-.628.099-.2.24-.374.423-.524.182-.151.402-.27.66-.36.257-.09.542-.134.855-.134.347 0 .643.036.886.108a3.279 3.279 0 011.008.486c.099.072.179.108.243.108.087 0 .154-.04.2-.122l.174-.286a3.309 3.309 0 00-1.116-.693 4.06 4.06 0 00-1.403-.226c-.44 0-.838.064-1.191.191a2.817 2.817 0 00-.899.511 2.266 2.266 0 00-.57.746 2.046 2.046 0 00-.198.884c0 .358.068.657.208.898a2 2 0 00.547.61c.226.168.481.306.769.416.286.11.58.211.882.304.3.092.595.185.881.276.288.093.544.206.769.339.225.133.409.294.548.485.139.191.208.43.208.72 0 .26-.048.507-.144.74a1.716 1.716 0 01-.42.612 2.006 2.006 0 01-.696.412c-.278.1-.6.15-.964.15-.389 0-.714-.045-.977-.137a3.705 3.705 0 01-.666-.3 3.082 3.082 0 01-.429-.299c-.108-.092-.199-.139-.274-.139a.292.292 0 00-.152.035.33.33 0 00-.1.104l-.19.295c.346.312.74.565 1.18.758.44.194.965.29 1.573.29.487 0 .919-.069 1.294-.207.378-.14.694-.326.952-.563.257-.237.453-.518.586-.842.134-.323.2-.672.2-1.048 0-.347-.069-.641-.208-.884a2.033 2.033 0 00-.544-.615M45.694 9.18l70.537 7.23-16.616 54.429L45.695 9.18zm44.563-7.62l57.783 4.393-30.866 8.994-67.01-6.864 40.093-6.522zm11.648 67.08l15.959-52.28 32.393-9.44-48.352 61.72zm51.946-63.803L90.283.006 90.189 0 42.367 7.78l57.675 65.859 53.81-68.802z"/></g></svg>