<svg width="200" height="44" xmlns="http://www.w3.org/2000/svg" xmlns:xlink="http://www.w3.org/1999/xlink"><defs><path id="a" d="M.006.376h24.277V38.42H.006z"/></defs><g fill="none" fill-rule="evenodd"><path d="M19.709 30.4c0 .651-.275 1.336-.821 2.056-.891 1.37-2.225 2.46-4.005 3.264-1.779.806-3.746 1.209-5.901 1.209a7.929 7.929 0 01-2.875-.514 6.647 6.647 0 01-2.284-1.44 7.116 7.116 0 01-1.514-2.16 6.341 6.341 0 01-.564-2.673c0-1.918.863-3.452 2.591-4.6 1.728-1.149 4.011-1.723 6.853-1.723 3.045 0 5.885.514 8.52 1.542V30.4zm1.745 4.73V21.146c0-3.222-.899-5.758-2.695-7.609-1.796-1.85-4.252-2.775-7.366-2.775-2.873 0-6.04 1.164-9.495 3.495l.822 1.286c1.506-1.062 2.985-1.877 4.44-2.443 1.453-.565 2.83-.848 4.131-.848 2.566 0 4.611.797 6.134 2.39 1.522 1.594 2.284 3.728 2.284 6.401v2.879c-1.199-.48-2.566-.84-4.107-1.08a29.443 29.443 0 00-4.516-.36c-1.642 0-3.14.19-4.491.566-1.352.378-2.515.908-3.49 1.594-.975.686-1.737 1.5-2.284 2.442a6.079 6.079 0 00-.82 3.11c0 1.165.221 2.245.665 3.239a7.97 7.97 0 001.849 2.596 8.864 8.864 0 002.772 1.748c1.059.428 2.207.642 3.438.642 2.258 0 4.371-.436 6.339-1.31 1.966-.874 3.55-2.116 4.747-3.727v2.364c0 .617.213 1.14.642 1.568.428.429.932.642 1.514.642.171 0 .308-.017.411-.05V36.26c-.616 0-.924-.376-.924-1.13zm29.511 0V11.171H49.22v16.966a13.268 13.268 0 01-1.72 3.495 11.969 11.969 0 01-5.774 4.498 10.15 10.15 0 01-3.54.644c-4.792 0-7.186-3.53-7.186-10.591V11.172h-1.745V26.39c0 3.976.719 6.974 2.156 8.997 1.436 2.022 3.574 3.032 6.414 3.032 2.396 0 4.62-.633 6.673-1.902 2.053-1.267 3.661-2.998 4.825-5.193v4.422c0 .515.197 1.012.59 1.491.393.48.88.72 1.463.72h.23a.911.911 0 00.283-.052v-1.644c-.616 0-.924-.377-.924-1.132m13.909-19.972c1.813-1.457 3.951-2.236 6.415-2.34v-1.645c-.205 0-.444.01-.719.026a15.01 15.01 0 01-.922.026c-1.745.205-3.389.908-4.928 2.108-1.54 1.2-2.772 2.742-3.696 4.626v-6.786h-1.693v26.733h1.745v-16.81c.718-2.502 1.983-4.48 3.798-5.938m12.549 4.087c.597-1.405 1.394-2.622 2.386-3.65a10.975 10.975 0 013.439-2.417c1.3-.582 2.702-.874 4.209-.874 1.504 0 2.908.283 4.208.848 1.3.567 2.455 1.363 3.465 2.392 1.009 1.028 1.822 2.244 2.438 3.65.616 1.405.975 2.947 1.078 4.626H76.37c.102-1.645.452-3.17 1.052-4.575M98.44 31.94l-1.59-.41a8.826 8.826 0 01-1.49 2.184 9.248 9.248 0 01-2.155 1.722 10.987 10.987 0 01-5.542 1.491 9.799 9.799 0 01-4.158-.899 11.64 11.64 0 01-3.465-2.442c-1.01-1.028-1.84-2.253-2.49-3.676-.65-1.422-1.026-2.956-1.128-4.6h23.918c0-.035.007-.155.025-.36a6.43 6.43 0 00.026-.412c0-1.885-.343-3.667-1.027-5.347-.686-1.679-1.608-3.144-2.771-4.395a12.858 12.858 0 00-4.107-2.956c-1.574-.72-3.268-1.08-5.08-1.08-1.814 0-3.49.36-5.03 1.08a13.214 13.214 0 00-4.056 2.93 13.415 13.415 0 00-2.72 4.319c-.65 1.644-.974 3.41-.974 5.295 0 1.92.333 3.727 1 5.424a14.228 14.228 0 002.772 4.472 13.087 13.087 0 004.13 3.033c1.575.737 3.27 1.105 5.083 1.105 1.198 0 2.36-.163 3.49-.488a13.461 13.461 0 003.13-1.337 10.948 10.948 0 002.54-2.056 8.685 8.685 0 001.669-2.597m29.024-2.646c-.599 1.49-1.403 2.785-2.411 3.882a11.653 11.653 0 01-3.542 2.622 9.735 9.735 0 01-3.337.925V12.455a9.536 9.536 0 013.363.928 11.746 11.746 0 013.516 2.622c1.008 1.097 1.812 2.391 2.41 3.881.6 1.49.9 3.06.9 4.704 0 1.645-.3 3.214-.9 4.704zm-10.597 7.46a9.942 9.942 0 01-3.928-.93 10.951 10.951 0 01-3.516-2.597c-.993-1.097-1.779-2.382-2.36-3.855a12.602 12.602 0 01-.873-4.679c0-1.679.299-3.265.899-4.755.597-1.49 1.402-2.794 2.411-3.907a11.543 11.543 0 013.516-2.648 9.571 9.571 0 013.851-.955v24.327zm13.292-12.112c0-1.885-.334-3.667-1.001-5.346-.667-1.68-1.583-3.154-2.746-4.422a13.024 13.024 0 00-4.106-3.008 11.633 11.633 0 00-4.132-1.057V4.38h-1.307v6.404c-1.625.052-3.16.404-4.595 1.082a13.08 13.08 0 00-4.08 3.008c-1.164 1.268-2.079 2.742-2.747 4.422-.667 1.679-1 3.461-1 5.346 0 1.85.324 3.616.975 5.294.65 1.68 1.556 3.146 2.72 4.396a13.232 13.232 0 004.08 2.982c1.438.68 2.99 1.032 4.647 1.084v4.658h1.307v-4.684a11.634 11.634 0 004.132-1.058 13.174 13.174 0 004.106-2.982c1.163-1.25 2.08-2.716 2.746-4.396.667-1.678 1-3.444 1-5.294zm12.549 12.415c-.53.086-.984.128-1.36.128-1.027 0-1.848-.29-2.465-.874-.615-.582-.922-1.37-.922-2.364V.377h-1.028v33.57c0 1.268.377 2.288 1.13 3.059.752.771 1.727 1.156 2.926 1.156.479 0 1.068-.06 1.77-.18.701-.12 1.291-.265 1.77-.437l-.36-.822c-.443.137-.93.249-1.46.334m23.12-6.503c0 .686-.257 1.388-.77 2.108-.925 1.439-2.335 2.588-4.234 3.444-1.9.857-3.996 1.285-6.287 1.285-1.06 0-2.054-.18-2.977-.54a7.304 7.304 0 01-2.413-1.516 7.176 7.176 0 01-1.615-2.288 6.725 6.725 0 01-.591-2.802c0-.993.238-1.893.718-2.699.48-.804 1.156-1.499 2.027-2.082.874-.582 1.916-1.028 3.132-1.336 1.214-.309 2.573-.463 4.08-.463 3.215 0 6.192.532 8.93 1.594v5.295zm1.026 5.295V21.095c0-1.576-.231-2.999-.693-4.268-.46-1.267-1.112-2.347-1.95-3.238-.84-.891-1.866-1.576-3.08-2.056-1.215-.48-2.558-.72-4.028-.72-2.738 0-5.817 1.165-9.238 3.496l.615.822c1.506-1.062 2.995-1.877 4.465-2.442 1.47-.565 2.857-.848 4.158-.848 1.3 0 2.49.223 3.566.668a8.015 8.015 0 012.772 1.877c.77.805 1.36 1.782 1.772 2.93.41 1.149.615 2.408.615 3.779v3.033c-1.266-.48-2.686-.848-4.26-1.105a28.993 28.993 0 00-4.67-.386c-1.609 0-3.089.188-4.44.565-1.352.378-2.515.9-3.49 1.568-.976.669-1.727 1.465-2.259 2.39-.53.926-.795 1.954-.795 3.085 0 1.132.222 2.194.668 3.187a8.148 8.148 0 001.821 2.597 8.547 8.547 0 002.746 1.748c1.06.428 2.19.643 3.388.643 2.326 0 4.482-.437 6.467-1.311 1.983-.874 3.592-2.117 4.824-3.728v2.468c0 .446.102.848.307 1.208.206.36.479.61.823.745.102.07.34.103.717.103v-1.028c-.548 0-.821-.342-.821-1.028z" fill="#231F20"/><g transform="translate(175.163)"><mask id="b" fill="#fff"><use xlink:href="#a"/></mask><path d="M22.384 29.294a13.507 13.507 0 01-2.438 4.087 12.236 12.236 0 01-3.747 2.905c-1.455.737-3.037 1.105-4.748 1.105-1.026 0-2.138-.213-3.335-.642A13.463 13.463 0 014.78 35a11.16 11.16 0 01-2.592-2.57c-.703-.978-1.087-2.014-1.156-3.111v-9.717a17.638 17.638 0 011.848-2.93 14.443 14.443 0 012.439-2.467 11.493 11.493 0 013.027-1.723 9.855 9.855 0 013.567-.642c1.677 0 3.209.36 4.595 1.08a11.881 11.881 0 013.592 2.852 12.867 12.867 0 012.335 4.088c.547 1.542.822 3.135.822 4.781 0 1.577-.291 3.128-.873 4.652m1.051-9.588a14.914 14.914 0 00-2.41-4.446 12.221 12.221 0 00-3.877-3.214c-1.539-.822-3.284-1.233-5.235-1.233-2.327 0-4.38.625-6.159 1.876-1.78 1.251-3.353 2.836-4.722 4.755V.376H.006v37.53h1.026v-5.553a11.523 11.523 0 001.925 2.39c.77.738 1.608 1.38 2.515 1.929.906.548 1.865.976 2.874 1.284a10.54 10.54 0 003.105.463c1.814 0 3.5-.377 5.057-1.13a13.416 13.416 0 004.08-3.034 13.968 13.968 0 002.72-4.396 14.2 14.2 0 00.975-5.217c0-1.646-.282-3.29-.848-4.936" fill="#231F20" mask="url(#b)"/></g></g></svg>